<svg xmlns="http://www.w3.org/2000/svg" x="0px" y="0px" width="128px" height="128px">
<path d="M79.777,36.997v9.557c-3.541-6.725-9.913-10.973-19.116-10.973c-14.691,0-26.548,12.743-26.548,29.203
c0,16.284,11.856,28.673,26.548,28.673c9.733,0,16.813-4.071,21.238-12.389c2.301,7.965,8.319,13.097,18.229,13.097
c12.921,0,23.363-11.15,23.363-33.805c0-31.858-24.247-56.637-58.937-56.637c-33.1,0-60.001,25.841-60.001,60
c0,34.514,26.018,60,61.062,60c11.15,0,20.886-2.301,29.028-7.08l-4.426-7.965c-7.257,4.071-15.929,6.018-24.779,6.018
c-30.267,0-50.265-21.77-50.265-50.974c0-28.85,19.998-50.974,49.203-50.974c30.267,0,49.204,20,49.204,47.788
c0,16.814-6.195,24.779-13.274,24.779c-6.726,0-9.559-4.779-9.559-12.036V36.997H79.777z M62.607,84.077
c-10.265,0-16.99-8.318-16.99-19.292c0-11.15,6.726-19.823,16.99-19.823c10.266,0,17.346,8.672,17.346,19.823
C79.953,75.758,72.873,84.077,62.607,84.077z"/>
</svg>