<svg xmlns="http://www.w3.org/2000/svg" x="0px" y="0px" width="128px" height="128px">
<path d="M63.998,3.944c-33.137,0-59.999,26.863-59.999,60.001c0,33.137,26.862,59.999,59.999,59.999
c33.138,0,60.001-26.862,60.001-59.999C123.999,30.808,97.136,3.944,63.998,3.944z M63.998,115.374
c-28.357,0-51.429-23.071-51.429-51.429c0-28.358,23.071-51.43,51.429-51.43c28.358,0,51.43,23.071,51.43,51.43
C115.428,92.303,92.356,115.374,63.998,115.374z"/>
<path d="M63.998,13.467c-27.833,0-50.478,22.646-50.478,50.479s22.645,50.478,50.478,50.478s50.479-22.645,50.479-50.478
S91.831,13.467,63.998,13.467z M63.998,113.352c-27.286,0-49.406-22.12-49.406-49.406c0-27.287,22.12-49.407,49.406-49.407
c27.287,0,49.407,22.12,49.407,49.407C113.405,91.231,91.285,113.352,63.998,113.352z"/>
<path d="M93.968,59.66H65.773l-29.05-29.05c-1.672-1.674-4.389-1.674-6.061,0c-1.674,1.673-1.674,4.388,0,6.061l30.305,30.305
c0.804,0.804,1.894,1.255,3.03,1.255h29.97c2.367,0,4.286-1.918,4.286-4.285C98.254,61.579,96.335,59.66,93.968,59.66z"/>
<circle cx="64.058" cy="21.148" r="4.286"/><circle cx="64.058" cy="106.86" r="4.286"/>
<circle cx="42.63" cy="26.89" r="2.143"/><circle cx="85.485" cy="101.118" r="2.143"/>
<circle cx="26.943" cy="42.576" r="2.143"/><circle cx="101.172" cy="85.432" r="2.143"/>
<circle cx="21.2" cy="64.004" r="4.285"/><circle cx="106.914" cy="64.004" r="4.285"/>
<circle cx="26.943" cy="85.432" r="2.143"/><circle cx="101.172" cy="42.576" r="2.143"/>
<circle cx="42.63" cy="101.118" r="2.143"/><circle cx="85.485" cy="26.89" r="2.143"/>
</svg>
