<svg xmlns="http://www.w3.org/2000/svg" x="0px" y="0px" width="128px" height="128px">
<path d="M24,120h80c8.8364,0,16-7.1636,16-16V24c0-8.8369-7.1636-16-16-16H24C15.1636,8,8,15.1631,8,24v80
C8,112.8364,15.1636,120,24,120z M16,24c0-4.4111,3.5889-8,8-8h80c4.4111,0,8,3.5889,8,8v80c0,4.4111-3.5889,8-8,8H88.3057V71.9546
H99.105l1.6177-13.9321h-12.417v-8.3779c0-1.7192,1.814-4.043,4.0386-4.043h8.1787v-13.731H84.9702
c-7.6729,0-13.8325,7.4741-13.8325,15.6533v10.5986h-7.978v14.1343h8.083V112H24c-4.4111,0-8-3.5889-8-8V24z"/>
</svg>
