<svg xmlns="http://www.w3.org/2000/svg" x="0px" y="0px" width="128px" height="128px">
<polygon points="25.2148,61.0562 25.9053,56.6904 29.9678,54.9507 68.9863,38.2417 70.7148,28.4351 71.5449,23.728 76.083,22.2285 
90.4668,17.4746 88,8 7.9951,32.0063 19.666,96.1719 	"/>
<path d="M109.5869,28.0068l-8.8965,50.4482l-66.5283,28.4902l6.167-39.0264l38.9336-16.6729l3.9775-1.7036l0.752-4.2612
l1.6504-9.3608L109.5869,28.0068 M119.791,16.209L78.5938,29.8242l-2.4805,14.0679L33.1172,62.3047L24,120l83.8174-35.8945
L119.791,16.209L119.791,16.209z"/>
</svg>