<svg xmlns="http://www.w3.org/2000/svg" x="0px" y="0px" width="128px" height="128px">
<polygon points="94.2905,20.8081 85.6519,20.8081 85.6519,37.8286 69.2754,37.8286 69.2754,46.1685 85.6519,46.1685 
85.6519,63.3403 94.2905,63.3403 94.2905,46.1685 110.6592,46.1685 110.6592,37.8286 94.2905,37.8286 "/>
<path d="M104,8H24C15.1636,8,8,15.1631,8,24v7.5552v36.4165v27.7617V104c0,8.8364,7.1636,16,16,16h29.7031h8.6494
H104c8.8364,0,16-7.1636,16-16V24C120,15.1631,112.8364,8,104,8z M16,32.8164c2.499-3.3267,6.1182-5.2808,10.4106-5.1582
c9.2212,0.2856,17.9839,10.0029,19.5767,22.1045c1.5732,11.9507-4.4111,21.4541-13.438,21.4541c-0.1016,0-0.2461,0-0.3877,0
C25.8354,71.0215,19.7241,66.2319,16,59.3359V32.8164z M16,72.8794c3.2822,1.2783,6.9702,1.9897,10.9893,1.9897
c1.1245,0,2.2407-0.0308,3.3354-0.1113c-1.0635,2.0176-1.834,4.2993-1.834,6.6943c0,3.9854,2.1602,7.2324,4.8682,9.8804
c-2.0498,0-4.0479,0.0503-6.2075,0.0503c-3.9268,0-7.6646,0.5117-11.1514,1.4097V72.8794z M24,112c-4.4111,0-8-3.5889-8-8v-5.8066
c4.311-2.2266,9.5122-3.5298,14.9346-3.4731c3.2271,0.0298,6.2192,0.5576,8.918,1.4399
c7.4448,5.1841,12.8213,8.1245,14.3516,14.0215c0.1362,0.6035,0.2388,1.209,0.3086,1.8184H24z M112,104c0,4.4111-3.5889,8-8,8
H63.812c-0.0825-10.1157-3.1821-16.2642-12.5171-22.8506c-3.2178-2.3013-9.415-7.8799-9.415-11.146
c0-3.8462,1.1045-5.7104,6.8687-10.2466c5.9233-4.624,10.1133-11.127,10.1133-18.6943c0-9.0078-3.999-17.7725-11.5347-20.6831
h11.3506l8.0244-5.8022H30.8843c-5.2271,0-10.3481,1.2979-14.8843,3.5249V24c0-4.4111,3.5889-8,8-8h80c4.4111,0,8,3.5889,8,8V104z"
/>
</svg>
