<svg xmlns="http://www.w3.org/2000/svg" xmlns:xlink="http://www.w3.org/1999/xlink" x="0px" y="0px" width="128px" height="128px">
<path fill="#231F20" d="M90.04,11.9727c-11.1514,0.001-20.874,6.0859-26.0498,15.1123
c-5.1748-9.0264-14.8975-15.1113-26.0488-15.1123C21.3662,11.9736,7.8877,25.4111,7.9277,41.9863C8,72,32.0273,96.0293,64,120
c31.9727-24.0273,56-48,56.0537-78.0137C120.083,25.4111,106.6152,11.9736,90.04,11.9727z M63.999,109.9492
C48.6582,98.1045,37.8711,87.9727,30.2939,78.3193C20.6562,66.042,15.957,54.1504,15.9277,41.9668
c-0.0137-5.8516,2.2598-11.3623,6.4033-15.5166c4.167-4.1768,9.7109-6.4775,15.6094-6.4775
c7.8652,0.001,15.1875,4.251,19.1094,11.0908l6.9395,12.1055l6.9414-12.1045c3.9219-6.8408,11.2451-11.0908,19.1094-11.0918
c5.8945,0.001,11.4346,2.2988,15.5986,6.4697c4.1475,4.1553,6.4258,9.6709,6.415,15.5293
C112.0068,68.4043,89.5127,90.2832,63.999,109.9492z"/>
</svg>
