<svg xmlns="http://www.w3.org/2000/svg" x="0px" y="0px" width="128px" height="128px">
<path fill="#231F20" d="M90.04,11.9727c-11.1514,0.001-20.874,6.0859-26.0498,15.1123
c-5.1748-9.0264-14.8975-15.1113-26.0488-15.1123C21.3662,11.9736,7.8877,25.4111,7.9277,41.9863C8,72,32.0273,96.0293,64,120
c31.9727-24.0273,56-48,56.0537-78.0137C120.083,25.4111,106.6152,11.9736,90.04,11.9727z M46.5,35.1162
c-1.7344,1.3682-4.25,1.0664-5.6162-0.6709c-1.1641-1.4775-4.6553-1.998-8.001-0.4111c-2.1426,1.0146-6.918,4.3213-4.9775,13.0723
c0.4785,2.1572-0.8828,4.293-3.0391,4.7715c-0.292,0.0645-0.583,0.0957-0.8701,0.0957c-1.834,0-3.4873-1.2695-3.9014-3.1348
c-2.6035-11.7432,3.1299-19.082,9.3643-22.0352c6.5801-3.1172,14.0312-1.9844,17.7119,2.6963
C48.5371,31.2363,48.2363,33.751,46.5,35.1162z"/>
</svg>