<svg xmlns="http://www.w3.org/2000/svg" x="0px" y="0px" width="128px" height="128px">
<path d="M83.7939,45.4688c-10.7598,0.1777-14.2798,4.7637-14.9888,5.1167v-4.7607H52.4077V94.228l16.3975,0.0908
V61.8677c0-1.0566,2.4663-4.1421,7.4092-4.229h0.1758c4.4922,0,6.6094,3.3496,6.7866,4.3203v32.269l16.5767,0.0908V60.1055
C99.3159,55.1719,97.5508,45.6465,83.7939,45.4688z"/>
<path d="M36.2686,24.0435h-0.1748c-4.4951,0.0879-7.8467,4.0581-7.8467,8.5522v0.356
c0.1733,4.5835,3.8809,8.1079,8.374,8.1079h0.0894c4.4971-0.085,8.1997-3.6104,8.1997-8.1079v-0.356
C44.7358,27.8345,40.9419,24.0435,36.2686,24.0435z"/>
<polygon points="28.3335,94.3188 44.6445,94.3188 44.6445,45.8247 28.4204,45.8247 "/>
<path d="M104,8H24C15.1636,8,8,15.1631,8,24v80c0,8.8364,7.1636,16,16,16h80c8.8364,0,16-7.1636,16-16V24
C120,15.1631,112.8364,8,104,8z M112,104c0,4.4111-3.5889,8-8,8H24c-4.4111,0-8-3.5889-8-8V24c0-4.4111,3.5889-8,8-8h80
c4.4111,0,8,3.5889,8,8V104z"/>
</svg>