<svg xmlns="http://www.w3.org/2000/svg" x="0px" y="0px" width="128px" height="128px">
<path d="M80.447,76.003c-1.108,2.758-2.213,5.444-3.283,8h14.447l17.828,27.97H18.613l17.829-27.97h14.526
c-1.072-2.562-2.178-5.249-3.285-8H32.055l-28.027,43.97h119.998l-28.026-43.97H80.447z"/>
<path d="M90.144,30.059c0-14.405-11.68-26.086-26.089-26.086c-14.406,0-26.087,11.681-26.087,26.086
c0,17.48,26.087,73.886,26.087,73.886S90.144,47.671,90.144,30.059z M46.707,30.061c0-9.58,7.769-17.349,17.349-17.349
c9.581,0,17.349,7.769,17.349,17.349c0,9.581-7.768,17.348-17.349,17.348C54.476,47.408,46.707,39.642,46.707,30.061z"/>
</svg>