<svg xmlns="http://www.w3.org/2000/svg" x="0px" y="0px" width="128px" height="128px">
<path fill="#231F20" d="M114.2695,85.7227c-3.4531-2.1191-15.3037-5.7744-22.2744-5.7744c-3.3271,0-6.3389,1.3486-8.5186,3.5283
c-1.6348,1.6328-7.2393,7.8252-13.3057,7.4688c-15.9746-9.1826-27.8672-24.6602-32.2744-43.0566
c5.752-0.9111,10.1533-5.8779,10.1533-11.8857c0-6.9707-3.6553-18.8213-5.7744-22.2744S36.3467,7.9727,31.999,7.9727l-3.9717,0.001
c-3.084,0-6.168,1.1768-8.5215,3.5293c0,0-8.8076,8.6973-9.8867,18.5557H9.5596C9.5459,30.7061,9.5107,31.3486,9.5107,32
c0,47.7666,38.7227,86.4893,86.4893,86.4893c0.0557,0,0.1113-0.0039,0.167-0.0039v-0.0029
c10.5645-0.1055,20.3281-9.9902,20.3281-9.9902c2.3525-2.3535,3.5293-5.4375,3.5293-8.5215l0.001-3.9717
C120.0254,91.6514,117.7227,87.8418,114.2695,85.7227z"/>
</svg>