<svg xmlns="http://www.w3.org/2000/svg" x="0px" y="0px" width="128px" height="128px">
<path d="M83.02,44.311L64.211,13.464L45.402,44.311l-35.148,8.356l23.524,27.42l-2.915,36.011l33.348-13.9l33.348,13.9
l-2.914-36.011l23.524-27.42L83.02,44.311z M88.572,74.878l-2.172,2.53l0.27,3.323l1.856,22.934l-21.237-8.852l-3.078-1.283
l-3.078,1.283l-21.236,8.852l1.855-22.934l0.27-3.323l-2.172-2.53l-14.98-17.463l22.384-5.321l3.244-0.771l1.736-2.847
l11.978-19.645l11.979,19.645l1.736,2.847l3.244,0.771l22.385,5.321L88.572,74.878z"/>
</svg>