<svg xmlns="http://www.w3.org/2000/svg" x="0px" y="0px" width="128px" height="128px">
<circle cx="26.4248" cy="101.6289" r="14.4668"/>
<path d="M16.9482,46.0801c-4.418,0-8,3.582-8,8s3.582,8,8,8c27.0322,0,49.0254,21.9922,49.0254,49.0234c0,4.418,3.582,8,8,8
s8-3.582,8-8C81.9736,75.249,52.8037,46.0801,16.9482,46.0801z"/>
<path d="M16.9482,7.9658c-4.418,0-8,3.582-8,8s3.582,8,8,8c48.0488,0,87.1387,39.0898,87.1387,87.1377c0,4.418,3.582,8,8,8
s8-3.582,8-8C120.0869,54.2334,73.8193,7.9658,16.9482,7.9658z"/>
</svg>