<svg xmlns="http://www.w3.org/2000/svg" x="0px" y="0px" width="128px" height="128px">
<path d="M117.6836,106.3721L91.8428,80.5312c-0.167-0.166-0.3408-0.3193-0.5176-0.4678c5.2314-7.4463,8.3135-16.5127,8.3135-26.3047
c0-25.3047-20.5146-45.8184-45.8203-45.8184C28.5137,7.9404,8,28.4541,8,53.7588s20.5137,45.8193,45.8184,45.8193
c9.7598,0,18.7998-3.0605,26.2324-8.2617c0.1514,0.1807,0.3076,0.3584,0.4775,0.5283l25.8408,25.8408
c1.5625,1.5625,3.6094,2.3438,5.6572,2.3438c2.0469,0,4.0947-0.7812,5.6562-2.3428
C120.8076,114.5625,120.8076,109.4971,117.6836,106.3721z M16,53.7588c0-20.8535,16.9648-37.8184,37.8184-37.8184
c20.8545,0,37.8203,16.9648,37.8203,37.8184S74.6729,91.5781,53.8184,91.5781C32.9648,91.5781,16,74.6123,16,53.7588z"/>
</svg>