<svg xmlns="http://www.w3.org/2000/svg"
x="0px" y="0px" width="128px" height="128px" viewBox="0 0 128 128" xml:space="preserve">
<g>
<path d="M35.4351,53.9199c-7.6807,0-13.9033,6.2246-13.9033,13.9019c0,7.6792,6.2227,13.9009,13.9033,13.9009
c7.6763,0,13.9004-6.2217,13.9004-13.9009C49.3354,60.1445,43.1113,53.9199,35.4351,53.9199z M35.4351,76.731
c-4.9126,0-8.9106-3.9956-8.9106-8.9092s3.998-8.9092,8.9106-8.9092c4.9121,0,8.9092,3.9956,8.9092,8.9092
S40.3472,76.731,35.4351,76.731z"/>
<circle cx="35.4351" cy="67.8213" r="4.7012"/>
<path d="M91.8354,53.9199c-7.6763,0-13.9033,6.2246-13.9033,13.9019c0,7.6792,6.2271,13.9009,13.9033,13.9009
c7.6792,0,13.9033-6.2217,13.9033-13.9009C105.7388,60.1445,99.5146,53.9199,91.8354,53.9199z M91.8354,76.731
c-4.9111,0-8.9077-3.9956-8.9077-8.9092s3.9966-8.9092,8.9077-8.9092c4.9141,0,8.9092,3.9956,8.9092,8.9092
S96.7495,76.731,91.8354,76.731z"/>
<circle cx="91.8354" cy="67.8213" r="4.7012"/>
<path d="M91.5327,96.0205c15.4922,0,28.0518-12.5557,28.0518-28.0493c0-6.1997-2.0376-11.9092-5.4429-16.5532
c0.9404-4.0771,2.7593-7.8184,5.2627-11.0024h-18.0986C90.2886,33.812,77.4102,30.0029,63.6343,30.0029
c-13.7764,0-26.6553,3.8091-37.6704,10.4126H7.8662c2.5034,3.1831,4.3213,6.9253,5.2607,11.0024
c-3.4062,4.6411-5.4434,10.3535-5.4434,16.5532c0,15.4937,12.5576,28.0493,28.0513,28.0493
c8.9565,0,16.9224-4.2051,22.0586-10.7368c-0.0679,0.0854-0.1279,0.1777-0.1978,0.2632l6.0386,9.2451l6.0376-9.2451
c-0.0737-0.0923-0.1401-0.1919-0.2144-0.2861C74.5947,91.8076,82.5688,96.0205,91.5327,96.0205z M107.1538,83.5938
c-4.1714,4.1729-9.7183,6.4692-15.6211,6.4692c-5.8999,0-11.4458-2.2964-15.6226-6.4692
c-4.1709-4.1729-6.4663-9.7212-6.4663-15.6226c0-5.9009,2.2954-11.4453,6.4663-15.6182
c4.1768-4.1729,9.7227-6.4707,15.6226-6.4707c5.9028,0,11.4497,2.2979,15.6211,6.4707c4.1733,4.1729,6.4722,9.7173,6.4722,15.6182
C113.626,73.8726,111.3271,79.4209,107.1538,83.5938z M89.3833,40.0244c-13.5166,1.0273-24.3579,11.6133-25.749,25.0249
c-1.3882-13.4116-12.2295-23.9966-25.7456-25.0249c8.1729-3.3257,16.8291-5.0298,25.7456-5.0298
C72.5542,34.9946,81.2085,36.6987,89.3833,40.0244z M51.356,83.5938c-4.1729,4.1729-9.7188,6.4692-15.6211,6.4692
c-5.8999,0-11.4497-2.2964-15.6196-6.4692c-4.1729-4.1729-6.4722-9.7212-6.4722-15.6226c0-5.9009,2.2993-11.4453,6.4731-15.6182
c4.1689-4.1729,9.7188-6.4707,15.6187-6.4707c5.9023,0,11.4482,2.2979,15.6211,6.4707c4.1719,4.1729,6.4697,9.7173,6.4697,15.6182
C57.8257,73.8726,55.5278,79.4209,51.356,83.5938z"/>
</g>
</svg>