<svg xmlns="http://www.w3.org/2000/svg" x="0px" y="0px" width="128px" height="128px">
<path d="M49.7803,83.8975c0,3.5625,0.373,6.2842,1.1172,8.1582c0.751,1.875,2.0879,3.6465,4.0234,5.3135
	c1.9297,1.6533,4.2656,2.9424,7.002,3.8447c2.7344,0.8955,4.8379,1.3438,8.4004,1.3438c3.1348,0,6.0488-0.3174,8.75-0.9443
	c2.7012-0.6338,5.7197-1.7363,9.041-3.3008V86.0264c-3.9004,2.5645-7.8213,3.8447-11.7695,3.8447
	c-2.2188,0-4.1816-0.5156-5.9121-1.5498c-1.2959-0.7646-2.4873-2.0879-2.9629-3.3633c-0.4824-1.2812-0.4209-3.8857-0.4209-8.4072
	V56.5742h18.0127V42.6689H67.0488V24.6494H55.9697c-0.498,4.0176-1.4062,7.332-2.7295,9.9297
	c-1.3232,2.6055-3.0732,4.8301-5.2578,6.6914c-2.1768,1.8535-5.7266,3.2793-8.7861,4.2715v11.0322h10.584V83.8975z"/>
<path d="M24,120h80c8.8359,0,16-7.1636,16-16V24c0-8.8369-7.1641-16-16-16H24C15.1641,8,8,15.1631,8,24v80
	C8,112.8364,15.1641,120,24,120z M16,24c0-4.4111,3.5889-8,8-8h80c4.4111,0,8,3.5889,8,8v80c0,4.4111-3.5889,8-8,8H24
	c-4.4111,0-8-3.5889-8-8V24z"/>
</svg>
