<svg xmlns="http://www.w3.org/2000/svg" x="0px" y="0px" width="128px" height="128px">
<path d="M26.3535,75.8984c5.7656,7.1841,13.6572,13.2944,25.3916,14.4146c3.9463,0.377,8.3125,0.1714,12.3013-0.5732
	c14.7363-2.7251,24.9863-10.7729,28.8281-24.312c3.7358,0.3579,6.6133-0.9028,8.4043-2.6284
	c0.207-0.2007,0.541-0.4736,0.4629-0.6279c-2.8867,0.436-6.2363,0.0732-8.2979-0.8584c3.7051-0.3794,6.8584-1.3076,8.0674-4.1768
	c-2.2227,1.04-6.3657,1.0229-8.8638,0.2285c-2.0586-8.252-6.7295-13.9004-16.189-14.7544c1.2725-0.2622,2.353-0.5186,3.6025-0.9751
	c0.7192-0.2544,2.7993-0.9741,2.6299-2.0029c-0.1558-0.9614-2.0107-0.5874-2.8057-0.3994c-1.0586,0.252-1.8813,0.604-2.7388,0.9116
	c0.835-0.6484,1.9385-1.0288,2.1162-2.3413c-2.3428,0.2935-4.1055,1.4658-5.6089,2.4033c0.2827-0.5376,0.6406-1.0029,0.7432-1.7163
	c-3.1797,1.8325-5.2725,4.8418-7.0894,8.0093c-1.8408,3.1968-3.4785,6.7168-4.75,10.4058c-1.6689-1.522-3.2412-3.1846-5.2612-4.3408
	c-6.0874-3.5122-13.1094-6.2705-19.96-8.9263c-0.0298,5.1582,3.1353,7.4219,6.0615,9.4351
	c-1.4512,0.1318-2.8481,0.3232-4.1787,0.5742c0.5654,4.7368,4.0659,6.5366,8.1826,7.7231c-2.1934,0.187-3.9966,0.7637-4.9727,2.1733
	c1.6943,2.8799,4.2876,4.8594,9.0317,4.6865c-1.3169,0.7773-3.5293,2.2163-2.5723,4.2925c0.7168,1.5503,3.0269,2.3105,5.2627,2.1709
	c-3.3799,2.9263-7.4028,5.7104-13.3838,6.123C34.416,81.2559,29.9111,78.5503,26.3535,75.8984z"/>
<path d="M24,120h80c8.8364,0,16-7.1636,16-16V24c0-8.8369-7.1636-16-16-16H24C15.1636,8,8,15.1631,8,24v80
	C8,112.8364,15.1636,120,24,120z M16,24c0-4.4111,3.5889-8,8-8h80c4.4111,0,8,3.5889,8,8v80c0,4.4111-3.5889,8-8,8H24
	c-4.4111,0-8-3.5889-8-8V24z"/>
</svg>
