<svg xmlns="http://www.w3.org/2000/svg" x="0px" y="0px" width="128px" height="128px">
<path d="M72,120h48V96.0596h-0.0654c0.0186-1.6836-0.502-3.3682-1.5479-4.7871c-0.1123-0.2949-0.3623-0.5986-0.7734-0.9131
c-0.8203-0.8203-1.7773-1.417-2.7959-1.8027c-9.7041-5.3789-27.0898-7.8828-38.79-14.5254v-8.4561
c4.1045-3.4932,6.7949-8.7344,7.0918-14.6514c0.292,0.1211,0.5957,0.1919,0.9082,0.1919c2.209,0,4-3.1978,4-7.1426
c0-1.9126-0.4238-3.645-1.1084-4.9272c0.6836-2.228,1.0537-4.5938,1.0537-7.0459C87.9727,18.7598,77.2402,8.0269,64,8.0269
S40.0273,18.7598,40.0273,32c0,2.5254,0.3926,4.959,1.1172,7.2451c-0.625,1.2598-1.0078,2.9121-1.0078,4.728
c0,3.9448,1.791,7.1426,4,7.1426c0.2559,0,0.5049-0.0474,0.7471-0.1289c0.3135,5.9165,3.0244,11.1509,7.1436,14.6313v8.374
c-11.6299,6.6475-28.9248,9.208-38.7324,14.5127c-1.0732,0.3828-2.083,0.9951-2.9424,1.8545
c-0.5107,0.3828-0.7939,0.748-0.9111,1.1006c-0.9551,1.3789-1.4277,2.9893-1.4102,4.5996H8V120h48l7.0732-24.7988l-5.1377-5.1377
l6.0303-6.0293l6.0293,6.0293l-5.1309,5.1318L72,120z"/>
</svg>