<svg xmlns="http://www.w3.org/2000/svg" x="0px" y="0px" width="128px" height="128px">
<path fill="#231F20" d="M40.9189,51.8613c1.874,2.2119,9.0127,28.9209,11.3965,33.8486c2.0811,4.3203,7.8213,10.0322,14.1201,5.9531
c6.291-4.0801,27.2109-21.9395,30.9531-43.0332c3.7422-21.0859-25.1719-16.6689-28.2383,1.7021
c7.6553-4.5967,11.7422,1.8672,7.8281,9.1855c-3.9141,7.3115-7.4844,12.0791-9.3574,12.0791c-1.8682,0-3.3008-4.8916-5.4443-13.4434
c-2.2119-8.8418-2.1982-24.7666-11.3916-22.9609c-8.6738,1.7021-20.0723,15.3115-20.0723,15.3115l2.7227,3.5693
C33.4355,54.0732,39.0508,49.6494,40.9189,51.8613z"/>
<path fill="#231F20" d="M24,120h80c8.8359,0,16-7.1636,16-16V24c0-8.8369-7.1641-16-16-16H24C15.1641,8,8,15.1631,8,24v80
C8,112.8364,15.1641,120,24,120z M16,24c0-4.4111,3.5889-8,8-8h80c4.4111,0,8,3.5889,8,8v80c0,4.4111-3.5889,8-8,8H24
c-4.4111,0-8-3.5889-8-8V24z"/>
</svg>
