<svg xmlns="http://www.w3.org/2000/svg" x="0px" y="0px" width="128px" height="128px">
<path d="M104,7.999H24c-8.836,0-16,7.163-16,16v80c0,8.836,7.164,16,16,16h80c8.836,0,16-7.164,16-16v-80
C120,15.162,112.836,7.999,104,7.999z M24,15.999h80c4.411,0,8,3.589,8,8v42.996c-2.781-1.889-6.131-2.995-9.727-2.995H25.727
c-3.596,0-6.945,1.106-9.727,2.995V23.999C16,19.588,19.589,15.999,24,15.999z M27.548,76.446v-4.954h17.397v4.954H39.08v29.152
h-5.667V76.446H27.548z M52.495,101.022c0.218,0.271,0.561,0.404,1.032,0.404c0.364,0,0.836-0.177,1.4-0.533
c0.57-0.35,1.088-0.803,1.562-1.346V80.432h5.029v25.167H56.49v-2.766c-0.934,1.027-1.896,1.798-2.904,2.332
c-1.003,0.539-1.975,0.801-2.919,0.801c-1.169,0-2.035-0.37-2.63-1.121c-0.584-0.754-0.884-1.869-0.884-3.37V80.432h5.029v19.304
C52.183,100.329,52.291,100.761,52.495,101.022z M72.539,80.724c0.768-0.397,1.539-0.594,2.32-0.594
c1.594,0,2.811,0.536,3.646,1.604c0.842,1.073,1.26,2.64,1.26,4.699v13.965c0,1.78-0.394,3.149-1.182,4.102
c-0.785,0.947-1.931,1.42-3.419,1.42c-0.988,0-1.865-0.177-2.63-0.547c-0.771-0.363-1.495-0.932-2.15-1.703v1.93h-5.084V71.492
h5.084V82.47C71.064,81.713,71.784,81.118,72.539,80.724z M88.077,101.118c0.336,0.513,0.903,0.764,1.706,0.764
c0.836,0,1.416-0.217,1.749-0.655c0.326-0.432,0.5-1.387,0.5-2.864v-1.148h5.175v1.291c0,2.578-0.625,4.525-1.896,5.834
c-1.254,1.301-3.136,1.947-5.644,1.947c-2.253,0-4.029-0.69-5.321-2.073c-1.291-1.38-1.946-3.286-1.946-5.708V87.2
c0-2.175,0.717-3.959,2.141-5.334c1.424-1.373,3.251-2.06,5.504-2.06c2.304,0,4.074,0.639,5.312,1.913
c1.236,1.271,1.852,3.099,1.852,5.48v6.415h-9.619v4.747C87.588,99.687,87.747,100.604,88.077,101.118z"/>
<polygon points="39.95,56.341 46.324,56.341 46.324,40.752 53.745,18.769 47.266,18.769 43.32,33.786 42.92,33.786 38.781,18.769 
32.359,18.769 39.95,41.455 	"/>
<path d="M62.379,57.041c2.572,0,4.591-0.677,6.065-2.024c1.461-1.354,2.195-3.208,2.195-5.58V35.118
c0-2.113-0.748-3.843-2.236-5.182c-1.501-1.342-3.421-2.015-5.766-2.015c-2.572,0-4.625,0.639-6.147,1.909
c-1.525,1.271-2.286,2.98-2.286,5.131v14.366c0,2.354,0.744,4.229,2.229,5.623C57.918,56.341,59.902,57.041,62.379,57.041z
M60.031,34.751c0-0.604,0.218-1.094,0.646-1.467c0.435-0.375,0.996-0.559,1.686-0.559c0.751,0,1.355,0.184,1.817,0.559
c0.459,0.373,0.69,0.862,0.69,1.467v15.1c0,0.741-0.225,1.326-0.68,1.754c-0.452,0.422-1.061,0.635-1.828,0.635
c-0.747,0-1.325-0.207-1.726-0.625c-0.401-0.418-0.605-1.002-0.605-1.764V34.751z"/>
<path d="M79.188,56.742c1.06,0,2.154-0.296,3.282-0.884c1.135-0.588,2.222-1.454,3.255-2.578v3.061h5.668V28.622h-5.668v21.039
c-0.523,0.607-1.107,1.104-1.739,1.495c-0.639,0.388-1.169,0.584-1.584,0.584c-0.529,0-0.917-0.149-1.148-0.444
c-0.237-0.293-0.367-0.766-0.367-1.424v-21.25h-5.653v23.166c0,1.651,0.333,2.889,0.992,3.714
C76.892,56.327,77.87,56.742,79.188,56.742z"/>
<path d="M70.385,100.815c0.404,0.408,0.805,0.71,1.192,0.887c0.388,0.18,0.788,0.271,1.213,0.271c0.618,0,1.067-0.176,1.359-0.533
c0.285-0.354,0.435-0.924,0.435-1.732V86.714c0-0.853-0.173-1.498-0.529-1.937c-0.367-0.438-0.891-0.652-1.566-0.652
c-0.36,0-0.718,0.075-1.067,0.245c-0.351,0.159-0.693,0.418-1.036,0.768V100.815z"/>
<path d="M92.032,87.159c0-1.05-0.181-1.811-0.53-2.256c-0.34-0.466-0.907-0.689-1.672-0.689c-0.802,0-1.373,0.224-1.723,0.689
c-0.354,0.445-0.52,1.206-0.52,2.256v2.542h4.444V87.159z"/>
</svg>
